<?xml version="1.0" encoding="UTF-8"?>
<svg fill="currentColor" xmlns="http://www.w3.org/2000/svg" xmlns:xlink="http://www.w3.org/1999/xlink" width="160px"
    height="36px" viewBox="0 0 159 36" version="1.1">
    <g id="surface1">
        <path style=" stroke:none;fill-rule:nonzero;fill:currentColor;fill-opacity:1;"
            d="M 154.375 17.320312 L 144.519531 17.320312 C 143.507812 17.320312 142.6875 16.519531 142.6875 15.53125 L 142.6875 13.867188 C 142.6875 12.882812 143.507812 12.078125 144.519531 12.078125 L 156.902344 12.078125 C 157.675781 12.078125 158.300781 11.46875 158.300781 10.710938 C 158.300781 9.957031 157.675781 9.347656 156.902344 9.347656 L 144.519531 9.347656 C 141.96875 9.347656 139.894531 11.375 139.894531 13.867188 L 139.894531 15.53125 C 139.894531 18.023438 141.96875 20.054688 144.519531 20.054688 L 154.375 20.054688 C 155.382812 20.054688 156.207031 20.855469 156.207031 21.839844 L 156.207031 23.503906 C 156.207031 24.492188 155.382812 25.292969 154.375 25.292969 L 141.292969 25.292969 C 140.519531 25.292969 139.894531 25.90625 139.894531 26.660156 C 139.894531 27.414062 140.519531 28.027344 141.292969 28.027344 L 154.375 28.027344 C 156.925781 28.027344 159 26 159 23.503906 L 159 21.839844 C 159 19.347656 156.925781 17.320312 154.375 17.320312 Z M 154.375 17.320312 " />
        <path style=" stroke:none;fill-rule:nonzero;fill:currentColor;fill-opacity:1;"
            d="M 133.464844 23.503906 C 133.464844 24.492188 132.644531 25.292969 131.636719 25.292969 L 121.777344 25.292969 C 120.769531 25.292969 119.949219 24.492188 119.949219 23.503906 L 119.949219 13.867188 C 119.949219 12.882812 120.769531 12.078125 121.777344 12.078125 L 131.636719 12.078125 C 132.644531 12.078125 133.464844 12.882812 133.464844 13.867188 Z M 131.636719 9.347656 L 121.777344 9.347656 C 119.226562 9.347656 117.152344 11.375 117.152344 13.867188 L 117.152344 23.503906 C 117.152344 26 119.226562 28.027344 121.777344 28.027344 L 131.636719 28.027344 C 134.1875 28.027344 136.261719 26 136.261719 23.503906 L 136.261719 13.867188 C 136.261719 11.375 134.1875 9.347656 131.636719 9.347656 Z M 131.636719 9.347656 " />
        <path style=" stroke:none;fill-rule:nonzero;fill:currentColor;fill-opacity:1;"
            d="M 110.726562 23.503906 C 110.726562 24.492188 109.90625 25.292969 108.894531 25.292969 L 97.207031 25.292969 L 97.207031 20.050781 L 108.894531 20.050781 C 109.90625 20.050781 110.726562 20.855469 110.726562 21.839844 Z M 110.726562 13.867188 L 110.726562 15.53125 C 110.726562 16.519531 109.90625 17.320312 108.894531 17.320312 L 97.207031 17.320312 L 97.207031 12.078125 L 108.894531 12.078125 C 109.90625 12.078125 110.726562 12.882812 110.726562 13.867188 Z M 108.894531 9.347656 L 95.8125 9.347656 C 95.570312 9.347656 95.34375 9.40625 95.144531 9.511719 C 95.066406 9.554688 94.992188 9.601562 94.921875 9.65625 C 94.851562 9.714844 94.789062 9.777344 94.734375 9.84375 C 94.535156 10.078125 94.414062 10.382812 94.414062 10.710938 L 94.414062 26.660156 C 94.414062 27.179688 94.710938 27.628906 95.144531 27.863281 C 95.34375 27.964844 95.570312 28.027344 95.8125 28.027344 L 108.894531 28.027344 C 111.445312 28.027344 113.519531 26 113.519531 23.503906 L 113.519531 21.839844 C 113.519531 20.613281 113.015625 19.5 112.203125 18.6875 C 113.015625 17.871094 113.519531 16.757812 113.519531 15.53125 L 113.519531 13.867188 C 113.519531 11.375 111.445312 9.347656 108.894531 9.347656 Z M 108.894531 9.347656 " />
        <path style=" stroke:none;fill-rule:nonzero;fill:currentColor;fill-opacity:1;"
            d="M 89.382812 9.347656 C 88.609375 9.347656 87.984375 9.957031 87.984375 10.710938 L 87.984375 23.503906 C 87.984375 24.492188 87.164062 25.292969 86.15625 25.292969 L 76.296875 25.292969 C 75.289062 25.292969 74.46875 24.492188 74.46875 23.503906 L 74.46875 10.710938 C 74.46875 9.957031 73.84375 9.347656 73.070312 9.347656 C 72.300781 9.347656 71.671875 9.957031 71.671875 10.710938 L 71.671875 23.503906 C 71.671875 26 73.746094 28.027344 76.296875 28.027344 L 86.15625 28.027344 C 88.707031 28.027344 90.78125 26 90.78125 23.503906 L 90.78125 10.710938 C 90.78125 9.957031 90.15625 9.347656 89.382812 9.347656 Z M 89.382812 9.347656 " />
        <path style=" stroke:none;fill-rule:nonzero;fill:currentColor;fill-opacity:1;"
            d="M 53.558594 12.078125 L 66.640625 12.078125 C 67.414062 12.078125 68.039062 11.46875 68.039062 10.710938 C 68.039062 9.957031 67.414062 9.347656 66.640625 9.347656 L 53.558594 9.347656 C 51.007812 9.347656 48.933594 11.375 48.933594 13.867188 L 48.933594 23.503906 C 48.933594 26 51.007812 28.027344 53.558594 28.027344 L 66.640625 28.027344 C 67.414062 28.027344 68.039062 27.414062 68.039062 26.660156 C 68.039062 25.90625 67.414062 25.292969 66.640625 25.292969 L 53.558594 25.292969 C 52.550781 25.292969 51.730469 24.492188 51.730469 23.503906 L 51.730469 13.867188 C 51.730469 12.882812 52.550781 12.078125 53.558594 12.078125 Z M 53.558594 12.078125 " />
        <path style=" stroke:none;fill-rule:nonzero;fill:currentColor;fill-opacity:1;"
            d="M 2.796875 9.046875 C 2.796875 6.324219 5.0625 4.105469 7.851562 4.105469 L 27.566406 4.105469 C 30.355469 4.105469 32.621094 6.324219 32.621094 9.046875 L 32.621094 28.324219 C 32.621094 31.050781 30.355469 33.265625 27.566406 33.265625 L 7.851562 33.265625 C 5.0625 33.265625 2.796875 31.050781 2.796875 28.324219 Z M 7.851562 36 L 27.566406 36 C 31.894531 36 35.417969 32.558594 35.417969 28.324219 L 35.417969 9.046875 C 35.417969 4.816406 31.894531 1.371094 27.566406 1.371094 L 7.851562 1.371094 C 3.523438 1.371094 0 4.816406 0 9.046875 L 0 28.324219 C 0 32.558594 3.523438 36 7.851562 36 Z M 7.851562 36 " />
    </g>
</svg>